<?xml version="1.0" encoding="UTF-8"?>
<svg id="Layer_2" data-name="Layer 2" xmlns="http://www.w3.org/2000/svg" viewBox="0 0 28.28 38.11">
  <defs>
    <style>
      .cls-1 {
        fill: #fff;
      }
    </style>
  </defs>
  <g id="Layer_1-2" data-name="Layer 1">
    <path class="cls-1" d="m2.94,9.87v18.37c0,5.44,4.43,9.87,9.87,9.87h2.65c5.44,0,9.87-4.43,9.87-9.87V9.87c0-1.74-.46-3.37-1.25-4.79h4.19V0H0v5.08h4.19c-.79,1.42-1.25,3.05-1.25,4.79Zm12.52-4.79c2.64,0,4.79,2.15,4.79,4.79v18.37c0,2.64-2.15,4.79-4.79,4.79h-2.65c-2.64,0-4.79-2.15-4.79-4.79V9.87c0-2.64,2.15-4.79,4.79-4.79h2.65Z"/>
  </g>
</svg>