<?xml version="1.0" encoding="UTF-8"?>
<svg id="Layer_2" data-name="Layer 2" xmlns="http://www.w3.org/2000/svg" viewBox="0 0 38.54 42.14">
  <defs>
    <style>
      .cls-1 {
        fill: #004b3d;
      }
    </style>
  </defs>
  <g id="Layer_1-2" data-name="Layer 1">
    <g>
      <path class="cls-1" d="m8.94,42.14h20.66c4.93,0,8.94-4.01,8.94-8.94V14.89c0-.9-.3-1.77-.83-2.49l.05-.05-1.85-1.77-1.84-1.76-8-7.65s0,0-.01,0l-.47-.45-.04.05c-.7-.48-1.52-.75-2.38-.75h-14.23C4.01,0,0,4.01,0,8.94v24.27c0,4.93,4.01,8.94,8.94,8.94ZM29.67,11.64h-.78c-1.39,0-2.52-1.13-2.52-2.52v-.63l1.97,1.89,1.33,1.27Zm-24.59-2.7c0-2.13,1.73-3.86,3.86-3.86h12.35v4.04c0,4.19,3.41,7.6,7.6,7.6h4.56v16.48c0,2.13-1.73,3.86-3.86,3.86H8.94c-2.13,0-3.86-1.73-3.86-3.86V8.94Z"/>
      <polygon class="cls-1" points="16.73 29.09 21.81 29.09 21.81 24.88 26.01 24.88 26.01 19.8 21.81 19.8 21.81 15.6 16.73 15.6 16.73 19.8 12.53 19.8 12.53 24.88 16.73 24.88 16.73 29.09"/>
    </g>
  </g>
</svg>