<?xml version="1.0" encoding="UTF-8"?>
<svg id="Layer_2" data-name="Layer 2" xmlns="http://www.w3.org/2000/svg" viewBox="0 0 40.22 39.09">
  <defs>
    <style>
      .cls-1 {
        fill: #004b3d;
      }
    </style>
  </defs>
  <g id="Layer_1-2" data-name="Layer 1">
    <g>
      <path class="cls-1" d="m12.93,39.09l3.59-3.59-1.95-1.95,2.59-10.43c.42-1.68-.45-3.36-2.05-3.99-1.61-.64-3.39,0-4.23,1.51l-3.31,5.92-1.95-1.95c-.34-.34-.53-.8-.53-1.28v-13.16H0v13.16c0,1.84.72,3.57,2.02,4.87l10.91,10.91Z"/>
      <path class="cls-1" d="m25.12,19.12c-1.61.64-2.47,2.31-2.05,3.99l2.59,10.43-1.95,1.95,3.59,3.59,10.91-10.91c1.3-1.3,2.02-3.03,2.02-4.87v-13.16h-5.08v13.16c0,.48-.19.94-.53,1.28l-1.95,1.95-3.31-5.92c-.84-1.51-2.62-2.14-4.23-1.51Z"/>
      <polygon class="cls-1" points="17.61 12.68 22.69 12.68 22.69 8.88 26.49 8.88 26.49 3.8 22.69 3.8 22.69 0 17.61 0 17.61 3.8 13.81 3.8 13.81 8.88 17.61 8.88 17.61 12.68"/>
    </g>
  </g>
</svg>