<?xml version="1.0" encoding="UTF-8"?>
<svg id="Layer_2" data-name="Layer 2" xmlns="http://www.w3.org/2000/svg" viewBox="0 0 41.96 36.78">
  <defs>
    <style>
      .cls-1 {
        fill: #004b3d;
      }
    </style>
  </defs>
  <g id="Layer_1-2" data-name="Layer 1">
    <path class="cls-1" d="m39.79,4.51l-2.34-2.34c-1.4-1.4-3.26-2.17-5.23-2.17H10.3c-1.95,0-3.86.79-5.23,2.17l-2.9,2.9c-1.4,1.4-2.17,3.26-2.17,5.23v12.88c0,4.08,3.32,7.4,7.4,7.4,1.98,0,3.84-.77,5.23-2.17l1.95-1.95c.11-.11.23-.21.35-.29v10.6h5.08v-10.99h1c1.45,0,2.85-.42,4.06-1.21l1.72-1.13c.38-.25.82-.38,1.28-.38h1.89c1.98,0,3.84-.77,5.23-2.17l4.59-4.59c1.4-1.4,2.17-3.26,2.17-5.23v-1.33c0-1.98-.77-3.83-2.17-5.23Zm-2.91,6.57c0,.61-.25,1.21-.68,1.64l-4.59,4.59c-.44.44-1.02.68-1.64.68h-.14v-3.86h-5.08v4.66c-.25.13-.5.26-.74.41l-1.72,1.13c-.38.25-.82.38-1.27.38h-1v-7.61c0-.99.81-1.79,1.79-1.79h2.67v-5.08h-2.67c-3.54,0-6.46,2.69-6.83,6.14-.59-.16-1.2-.26-1.84-.26h-2.67v5.08h2.67c.99,0,1.79.81,1.79,1.79v1.85c-1.49.26-2.86.96-3.94,2.05l-1.95,1.95c-.44.44-1.02.68-1.64.68-1.28,0-2.32-1.04-2.32-2.32v-12.88c0-.62.24-1.2.68-1.64l2.9-2.9c.43-.43,1.03-.68,1.64-.68h21.91c.62,0,1.2.24,1.64.68l2.34,2.34c.44.44.68,1.02.68,1.64v1.33Z"/>
  </g>
</svg>