<?xml version="1.0" encoding="UTF-8"?>
<svg id="Layer_2" data-name="Layer 2" xmlns="http://www.w3.org/2000/svg" viewBox="0 0 45.89 45.89">
  <defs>
    <style>
      .cls-1 {
        fill: #fff;
      }
    </style>
  </defs>
  <g id="Layer_1-2" data-name="Layer 1">
    <path class="cls-1" d="m29.87,20.82h-3.97v-3.97c0-3.53-1.37-6.85-3.87-9.34L14.53,0l-3.59,3.59,2.26,2.26-7.34,7.34-2.26-2.26-3.59,3.59,7.5,7.5c2.5,2.5,5.82,3.87,9.34,3.87h3.97v3.97c0,3.53,1.37,6.85,3.87,9.34l6.68,6.68,3.59-3.59-2.26-2.26,7.34-7.34,2.26,2.26,3.59-3.59-6.68-6.68c-2.5-2.5-5.81-3.87-9.34-3.87Zm-13.09-11.38l1.39,1.39-7.34,7.34-1.39-1.39,7.34-7.34Zm.06,11.38c-.46,0-.91-.05-1.35-.12l5.2-5.2c.07.44.12.89.12,1.35v3.97h-3.97Zm12.84,5.08l-3.79,3.79v-3.79h3.79Zm-.58,10.55l-.83-.83c-.19-.19-.37-.39-.54-.59l7.29-7.29c.21.17.4.35.59.54l.83.83-7.34,7.34Z"/>
  </g>
</svg>