<?xml version="1.0" encoding="UTF-8"?>
<svg id="Layer_2" data-name="Layer 2" xmlns="http://www.w3.org/2000/svg" viewBox="0 0 42.98 42.99">
  <defs>
    <style>
      .cls-1 {
        fill: #004b3d;
      }
    </style>
  </defs>
  <g id="Layer_1-2" data-name="Layer 1">
    <g>
      <path class="cls-1" d="m34.75,3.8h-1.27V0h-5.08v3.8h-13.83V0h-5.08v3.8h-1.27C3.69,3.8,0,7.49,0,12.03v22.74c0,4.54,3.69,8.22,8.22,8.22h26.53c4.54,0,8.22-3.69,8.22-8.22V12.03c0-4.53-3.69-8.22-8.22-8.22Zm3.15,30.96c0,1.73-1.41,3.14-3.15,3.14H8.22c-1.73,0-3.15-1.41-3.15-3.14V12.03c0-1.73,1.41-3.14,3.15-3.14h1.27v3.8h5.08v-3.8h13.83v3.8h5.08v-3.8h1.27c1.73,0,3.15,1.41,3.15,3.14v22.74Z"/>
      <polygon class="cls-1" points="24.03 17.05 18.95 17.05 18.95 20.85 15.15 20.85 15.15 25.93 18.95 25.93 18.95 29.74 24.03 29.74 24.03 25.93 27.83 25.93 27.83 20.85 24.03 20.85 24.03 17.05"/>
    </g>
  </g>
</svg>