<?xml version="1.0" encoding="UTF-8"?>
<svg id="Layer_2" data-name="Layer 2" xmlns="http://www.w3.org/2000/svg" viewBox="0 0 42.14 42.13">
  <defs>
    <style>
      .cls-1 {
        fill: #fff;
      }
    </style>
  </defs>
  <g id="Layer_1-2" data-name="Layer 1">
    <path class="cls-1" d="m7.37,26.03h0s10.54,10.54,10.54,10.54h0s1.17,1.17,1.17,1.17c2.93,2.93,6.78,4.4,10.63,4.4s7.7-1.47,10.63-4.4h0c2.4-2.4,2.4-6.3,0-8.7l-4.9-4.9c-1.16-1.16-2.71-1.8-4.35-1.8s-3.19.64-4.35,1.8l-7.04,7.04-8.74-8.74,7.04-7.04c2.4-2.4,2.4-6.3,0-8.7L13.1,1.8c-1.16-1.16-2.71-1.8-4.35-1.8s-3.19.64-4.35,1.8C1.56,4.64,0,8.41,0,12.43s1.56,7.79,4.4,10.63l2.97,2.97Zm22.96,1.7c.27-.27.59-.31.76-.31s.48.04.76.31l4.9,4.9c.42.42.42,1.1,0,1.51-3.67,3.67-9.52,3.87-13.42.6l7.01-7.01ZM7.99,5.39c.27-.27.59-.31.76-.31s.49.04.76.31l4.9,4.9c.42.42.42,1.1,0,1.51l-7.01,7.01c-1.5-1.79-2.32-4.02-2.32-6.39,0-2.66,1.04-5.16,2.92-7.04Z"/>
  </g>
</svg>