<?xml version="1.0" encoding="UTF-8"?>
<svg id="Layer_2" data-name="Layer 2" xmlns="http://www.w3.org/2000/svg" viewBox="0 0 44.11 42.16">
  <defs>
    <style>
      .cls-1 {
        fill: #fff;
      }
    </style>
  </defs>
  <g id="Layer_1-2" data-name="Layer 1">
    <g>
      <path class="cls-1" d="m35.72,0H8.4C3.77,0,0,3.77,0,8.4v17.57c0,4.63,3.77,8.4,8.4,8.4h27.32c4.63,0,8.4-3.77,8.4-8.4V8.4c0-4.63-3.77-8.4-8.4-8.4Zm3.32,25.96c0,1.83-1.49,3.32-3.32,3.32H8.4c-1.83,0-3.32-1.49-3.32-3.32V8.4c0-1.83,1.49-3.32,3.32-3.32h27.32c1.83,0,3.32,1.49,3.32,3.32v17.57Z"/>
      <rect class="cls-1" x="2.54" y="37.08" width="39.04" height="5.08"/>
    </g>
  </g>
</svg>