<?xml version="1.0" encoding="UTF-8"?>
<svg id="Layer_2" data-name="Layer 2" xmlns="http://www.w3.org/2000/svg" viewBox="0 0 45.6 43.22">
  <defs>
    <style>
      .cls-1 {
        fill: #fff;
      }
    </style>
  </defs>
  <g id="Layer_1-2" data-name="Layer 1">
    <path class="cls-1" d="m39.1,14.35h-8.78s.6-3.58.6-3.58c.72-4.3-1.56-8.54-5.55-10.31-1.66-.74-3.56-.59-5.09.4-1.52.99-2.43,2.67-2.43,4.49v3.5c0,.77-.27,1.53-.75,2.13l-5.87,7.33h-2.74c-4.68,0-8.49,3.81-8.49,8.49v7.93c0,4.68,3.81,8.49,8.49,8.49h25.1c3.9,0,7.29-2.64,8.23-6.43l3.59-14.35h0c.49-1.96.06-3.99-1.19-5.58-1.24-1.59-3.11-2.5-5.12-2.5Zm-29.18,23.79h-1.43c-1.88,0-3.41-1.53-3.41-3.41v-7.93c0-1.88,1.53-3.41,3.41-3.41h1.43v14.75Zm30.57-16.94l-3.59,14.35c-.38,1.52-1.74,2.58-3.31,2.58H14.99v-16.39l6.07-7.59c1.2-1.5,1.86-3.38,1.86-5.3v-3.5s0-.15.12-.23c.13-.08.22-.04.26-.02,1.87.83,2.94,2.82,2.6,4.84l-1.58,9.49h14.77c.61,0,.96.35,1.12.55.16.2.41.64.26,1.22Z"/>
  </g>
</svg>