<?xml version="1.0" encoding="UTF-8"?>
<svg id="Layer_2" data-name="Layer 2" xmlns="http://www.w3.org/2000/svg" viewBox="0 0 50.37 44.2">
  <defs>
    <style>
      .cls-1 {
        fill: #004b3d;
      }
    </style>
  </defs>
  <g id="Layer_1-2" data-name="Layer 1">
    <g>
      <path class="cls-1" d="m42.94,0h-22.82c-4.1,0-7.43,3.33-7.43,7.43v5.61h-5.27c-4.1,0-7.43,3.33-7.43,7.43v16.3c0,4.1,3.33,7.43,7.43,7.43h22.82c4.1,0,7.43-3.33,7.43-7.43v-5.61h5.27c4.1,0,7.43-3.33,7.43-7.43V7.43c0-4.1-3.33-7.43-7.43-7.43ZM7.43,18.12h22.82c1.29,0,2.35,1.05,2.35,2.35v.53H5.08v-.53c0-1.29,1.05-2.35,2.35-2.35Zm22.82,21H7.43c-1.3,0-2.35-1.05-2.35-2.35v-10.69h27.51v10.69c0,1.3-1.05,2.35-2.35,2.35Zm15.05-15.39c0,1.3-1.05,2.35-2.35,2.35h-5.27v-5.61c0-4.1-3.33-7.43-7.43-7.43h-12.47v-5.61c0-1.3,1.05-2.35,2.35-2.35h22.82c1.3,0,2.35,1.05,2.35,2.35v16.3Z"/>
      <rect class="cls-1" x="9.53" y="30.77" width="8.62" height="5.08"/>
    </g>
  </g>
</svg>