<?xml version="1.0" encoding="UTF-8"?>
<svg id="Layer_2" data-name="Layer 2" xmlns="http://www.w3.org/2000/svg" viewBox="0 0 48.34 43.46">
  <defs>
    <style>
      .cls-1 {
        fill: #004b3d;
      }
    </style>
  </defs>
  <g id="Layer_1-2" data-name="Layer 1">
    <path class="cls-1" d="m45.22,3.03c-1.99-1.52-4.51-2.01-6.92-1.35l-6.45,1.77c-.74.2-1.52.19-2.25-.05L20.27.42s-.02,0-.03,0c-1.66-.52-3.41-.55-5.09-.09L6.64,2.65C2.73,3.73,0,7.31,0,11.36v22.74c0,2.5,1.14,4.8,3.13,6.32,1.99,1.52,4.51,2.01,6.92,1.35l6.45-1.77c.74-.2,1.51-.19,2.25.05l9.3,2.98s0,0,0,0h.01c.19.07.39.11.59.14.71.17,1.42.29,2.15.29.8,0,1.61-.11,2.39-.32l8.51-2.33c3.91-1.07,6.64-4.65,6.64-8.71V9.35c0-2.5-1.14-4.8-3.13-6.32Zm-23.48,3.19l6.31,2.02s.05.02.08.02v29.45l-7.82-2.5s-.05-.02-.08-.02V5.74l1.51.48Zm-13.03,30.65c-.87.24-1.78.06-2.5-.49-.72-.55-1.13-1.38-1.13-2.28V11.36c0-1.77,1.19-3.34,2.9-3.81l7.16-1.96v29.52l-6.44,1.76Zm34.56-4.78c0,1.77-1.19,3.34-2.9,3.81l-7.16,1.96V8.35l6.44-1.76c.87-.24,1.78-.06,2.5.49.72.55,1.13,1.38,1.13,2.28v22.74Z"/>
  </g>
</svg>