<?xml version="1.0" encoding="UTF-8"?>
<svg id="Layer_2" data-name="Layer 2" xmlns="http://www.w3.org/2000/svg" viewBox="0 0 32.23 30.22">
  <defs>
    <style>
      .cls-1 {
        fill: #fff;
      }
    </style>
  </defs>
  <g id="Layer_1-2" data-name="Layer 1">
    <g>
      <path class="cls-1" d="m5.08,17.06c0-.48.19-.94.53-1.28l10.51-10.51,10.5,10.51c.34.34.53.81.53,1.28v13.16h5.08v-13.16c0-1.81-.74-3.59-2.02-4.87L19.31,1.28c-1.71-1.7-4.68-1.7-6.38,0L2.02,12.19c-1.28,1.28-2.02,3.06-2.02,4.88v13.16h5.08v-13.16Z"/>
      <polygon class="cls-1" points="18.66 27.03 18.66 22.23 23.45 22.23 23.45 17.15 18.66 17.15 18.66 12.36 13.58 12.36 13.58 17.15 8.79 17.15 8.79 22.23 13.58 22.23 13.58 27.03 18.66 27.03"/>
    </g>
  </g>
</svg>