<?xml version="1.0" encoding="UTF-8"?>
<svg id="Layer_2" data-name="Layer 2" xmlns="http://www.w3.org/2000/svg" viewBox="0 0 42.72 40.65">
  <defs>
    <style>
      .cls-1 {
        fill: #004b3d;
      }
    </style>
  </defs>
  <g id="Layer_1-2" data-name="Layer 1">
    <path class="cls-1" d="m37.44,27.15h-2.93c-2.54,0-4.67,1.81-5.17,4.21h-8.03c-.11,0-.21-.09-.21-.21v-8.09h7.91c2.92,0,5.29-2.37,5.29-5.29V5.08h2.82V0h-10.72v5.08h2.82v12.7c0,.11-.09.21-.21.21H8.11c-.11,0-.21-.09-.21-.21V5.08h2.82V0H0v5.08h2.82v12.7c0,2.91,2.37,5.29,5.28,5.29h7.92v8.09c0,2.91,2.37,5.29,5.28,5.29h8.03c.5,2.4,2.63,4.21,5.17,4.21h2.93c2.92,0,5.29-2.37,5.29-5.29v-2.93c0-2.91-2.37-5.29-5.29-5.29Zm.21,8.21c0,.11-.09.21-.21.21h-2.93c-.11,0-.21-.09-.21-.21v-2.93c0-.11.09-.21.21-.21h2.93c.11,0,.21.09.21.21v2.93Z"/>
  </g>
</svg>