<?xml version="1.0" encoding="UTF-8"?>
<svg id="Layer_2" data-name="Layer 2" xmlns="http://www.w3.org/2000/svg" viewBox="0 0 49.82 43.45">
  <defs>
    <style>
      .cls-1 {
        fill: #fff;
      }
    </style>
  </defs>
  <g id="Layer_1-2" data-name="Layer 1">
    <path class="cls-1" d="m34.45,0c-3.51,0-6.84,1.18-9.54,3.36-2.71-2.18-6.03-3.36-9.54-3.36-4.12,0-8,1.63-10.91,4.6-5.95,6.06-5.95,15.92,0,21.97l13.84,14.11c1.75,1.79,4.1,2.77,6.6,2.77h0c2.51,0,4.85-.98,6.61-2.77l13.84-14.11c5.95-6.06,5.95-15.92,0-21.97-2.91-2.96-6.78-4.6-10.91-4.6Zm7.28,23.01l-13.84,14.11c-.79.81-1.85,1.25-2.98,1.25s-2.19-.44-2.98-1.25l-13.84-14.11c-4.02-4.1-4.02-10.76,0-14.86,1.94-1.98,4.53-3.07,7.28-3.07s5.34,1.09,7.28,3.07l2.26,2.3,2.26-2.3c1.94-1.98,4.53-3.07,7.28-3.07s5.34,1.09,7.28,3.07c4.02,4.1,4.02,10.76,0,14.86Z"/>
  </g>
</svg>