<?xml version="1.0" encoding="UTF-8"?>
<svg id="Layer_2" data-name="Layer 2" xmlns="http://www.w3.org/2000/svg" viewBox="0 0 32.23 36.86">
  <defs>
    <style>
      .cls-1 {
        fill: #fff;
      }
    </style>
  </defs>
  <g id="Layer_1-2" data-name="Layer 1">
    <g>
      <polygon class="cls-1" points="13.41 22.33 18.49 22.33 18.49 18.12 22.69 18.12 22.69 13.04 18.49 13.04 18.49 8.84 13.41 8.84 13.41 13.04 9.21 13.04 9.21 18.12 13.41 18.12 13.41 22.33"/>
      <path class="cls-1" d="m11.87,35.11c1.13,1.13,2.64,1.76,4.24,1.76s3.11-.62,4.24-1.76l9.54-9.54c1.51-1.51,2.33-3.51,2.33-5.64V6.67c0-3.68-2.99-6.67-6.67-6.67H6.67C2.99,0,0,2.99,0,6.67v13.26c0,2.13.83,4.13,2.34,5.64l9.54,9.54ZM5.08,6.67c0-.88.71-1.59,1.59-1.59h18.89c.88,0,1.59.71,1.59,1.59v13.26c0,.77-.3,1.5-.85,2.05l-9.54,9.54c-.23.23-.51.27-.65.27s-.42-.03-.65-.27l-9.54-9.54c-.55-.55-.85-1.27-.85-2.05V6.67Z"/>
    </g>
  </g>
</svg>