<?xml version="1.0" encoding="UTF-8"?>
<svg id="Layer_2" data-name="Layer 2" xmlns="http://www.w3.org/2000/svg" viewBox="0 0 34.87 47.48">
  <defs>
    <style>
      .cls-1 {
        fill: #004b3d;
      }
    </style>
  </defs>
  <g id="Layer_1-2" data-name="Layer 1">
    <g>
      <path class="cls-1" d="m25.72,47.48c5.04,0,9.14-4.1,9.14-9.14V9.14c0-5.04-4.1-9.14-9.14-9.14H9.14C4.1,0,0,4.1,0,9.14v29.2c0,5.04,4.1,9.14,9.14,9.14h16.58Zm-20.64-9.14V9.14c0-2.24,1.82-4.06,4.06-4.06h16.58c2.24,0,4.06,1.82,4.06,4.06v29.2c0,2.24-1.82,4.06-4.06,4.06H9.14c-2.24,0-4.06-1.82-4.06-4.06Z"/>
      <rect class="cls-1" x="18.68" y="12.67" width="7.53" height="5.08"/>
      <rect class="cls-1" x="8.65" y="12.67" width="7.53" height="5.08"/>
      <rect class="cls-1" x="18.68" y="21.2" width="7.53" height="5.08"/>
      <rect class="cls-1" x="8.65" y="21.2" width="7.53" height="5.08"/>
      <rect class="cls-1" x="18.68" y="29.73" width="7.53" height="5.08"/>
      <rect class="cls-1" x="8.65" y="29.73" width="7.53" height="5.08"/>
    </g>
  </g>
</svg>