<?xml version="1.0" encoding="UTF-8"?>
<svg id="Layer_2" data-name="Layer 2" xmlns="http://www.w3.org/2000/svg" viewBox="0 0 46.32 46.31">
  <defs>
    <style>
      .cls-1 {
        fill: #fff;
      }
    </style>
  </defs>
  <g id="Layer_1-2" data-name="Layer 1">
    <path class="cls-1" d="m44.07,7.97l-5.73-5.73c-2.99-2.99-7.85-2.99-10.84,0L2.24,27.51c-1.45,1.45-2.24,3.37-2.24,5.42s.8,3.97,2.24,5.42l5.73,5.73h0c1.49,1.49,3.46,2.24,5.42,2.24s3.93-.75,5.42-2.24l25.27-25.27c1.45-1.45,2.24-3.37,2.24-5.42s-.8-3.97-2.24-5.42Zm-13.31,16.75l-6.05,6.05c-1.2,1.2-3.14,1.2-4.34,0l-4.83-4.83c-1.2-1.2-1.2-3.14,0-4.34l6.05-6.05c.58-.58,1.35-.9,2.17-.9s1.59.32,2.17.9l4.83,4.83c1.2,1.2,1.2,3.14,0,4.34Zm-15.07,16.24c-1.27,1.27-3.34,1.27-4.61,0l-5.73-5.73c-.62-.62-.96-1.43-.96-2.31s.34-1.69.96-2.31l5.11-5.11c.31,1.3.96,2.53,1.97,3.54l4.83,4.83c.99.99,2.21,1.66,3.54,1.98l-5.11,5.11Zm25.27-25.27l-5.11,5.11c-.31-1.3-.96-2.53-1.97-3.54l-4.83-4.83c-.99-.99-2.21-1.66-3.54-1.98l5.11-5.11c1.27-1.27,3.34-1.27,4.61,0l5.73,5.73c.62.62.96,1.43.96,2.31s-.34,1.69-.96,2.31Z"/>
  </g>
</svg>