<?xml version="1.0" encoding="UTF-8"?>
<svg id="Layer_2" data-name="Layer 2" xmlns="http://www.w3.org/2000/svg" viewBox="0 0 52.97 41.93">
  <defs>
    <style>
      .cls-1 {
        fill: #004b3d;
      }
    </style>
  </defs>
  <g id="Layer_1-2" data-name="Layer 1">
    <g>
      <path class="cls-1" d="m31.13,40.42l7.77-7.77-3.59-3.59-7.88,7.77-6.56-6.56-3.59,3.59,6.56,6.56c.98.97,2.27,1.51,3.65,1.51s2.67-.54,3.65-1.51Z"/>
      <path class="cls-1" d="m9.8,17.87c-1.22-3.47-.33-7.4,2.27-10,3.52-3.52,9.24-3.76,13.03-.53,1.37,1.17,3.37,1.17,4.74,0,3.79-3.22,9.51-2.99,13.03.53,2.07,2.07,3.08,4.93,2.76,7.83l5.05.55c.48-4.45-1.05-8.81-4.22-11.97-5.1-5.1-13.23-5.69-18.99-1.53C21.72-1.4,13.59-.82,8.49,4.28c-3.98,3.97-5.34,9.97-3.48,15.27l4.79-1.68Z"/>
      <path class="cls-1" d="m25.86,16.12c-1.04-1-2.46-1.51-3.91-1.42-1.44.09-2.78.79-3.68,1.92l-7.87,9.75H0v5.08h10.4c1.57,0,3.04-.7,4.02-1.93l7.93-9.73,5.62,5.38c.97.92,2.23,1.43,3.57,1.43h21.43v-5.08l-21.49-.02-5.62-5.38Z"/>
    </g>
  </g>
</svg>