<?xml version="1.0" encoding="UTF-8"?>
<svg id="Layer_2" data-name="Layer 2" xmlns="http://www.w3.org/2000/svg" viewBox="0 0 44.32 39.2">
  <defs>
    <style>
      .cls-1 {
        fill: #004b3d;
      }
    </style>
  </defs>
  <g id="Layer_1-2" data-name="Layer 1">
    <path class="cls-1" d="m31.39,39.2h6.61c3.49,0,6.33-2.84,6.33-6.33v-6.71c0-1.19-.33-2.35-.97-3.36l-6.61-10.53c-1.16-1.86-3.17-2.96-5.36-2.96-3.49,0-6.33,2.84-6.33,6.33v1.14l-.36-.28V0h-5.08v16.49l-.36.28v-1.14c0-3.49-2.84-6.33-6.33-6.33-2.19,0-4.19,1.11-5.36,2.96L.97,22.8c-.63,1.01-.97,2.17-.97,3.36v6.71c0,3.49,2.84,6.33,6.33,6.33h6.61c3.49,0,6.33-2.84,6.33-6.33v-9.64l2.9-2.28,2.9,2.28v9.64c0,3.49,2.84,6.33,6.33,6.33Zm-17.2-6.33c0,.69-.56,1.25-1.25,1.25h-6.61c-.69,0-1.25-.56-1.25-1.25v-6.71c0-.23.07-.46.19-.66l6.61-10.53c.23-.37.63-.58,1.06-.58.69,0,1.25.56,1.25,1.25v5.14l-7.09,5.58v4.17h5.08v-1.71l2.01-1.58v5.64Zm15.96-17.25c0-.69.56-1.25,1.25-1.25.43,0,.83.22,1.06.58l6.61,10.53c.13.2.19.43.19.66v6.71c0,.69-.56,1.25-1.25,1.25h-6.61c-.69,0-1.25-.56-1.25-1.25v-5.64l2.01,1.58v1.71h5.08v-4.17l-7.09-5.58v-5.14Z"/>
  </g>
</svg>