<?xml version="1.0" encoding="UTF-8"?>
<svg id="Layer_2" data-name="Layer 2" xmlns="http://www.w3.org/2000/svg" viewBox="0 0 45.01 43.46">
  <defs>
    <style>
      .cls-1 {
        fill: #004b3d;
      }
    </style>
  </defs>
  <g id="Layer_1-2" data-name="Layer 1">
    <path class="cls-1" d="m38.4,11.45l-6.04-.12c-.69-.01-1.3-.46-1.52-1.11l-1.98-5.7c-.96-2.75-3.45-4.52-6.36-4.52s-5.4,1.77-6.36,4.52l-1.98,5.7c-.23.65-.84,1.09-1.53,1.11l-6.03.12c-2.91.06-5.37,1.88-6.27,4.65-.9,2.77.02,5.69,2.33,7.45l4.81,3.65c.55.41.78,1.13.58,1.79l-1.75,5.78c-.84,2.78.13,5.69,2.49,7.4,2.35,1.71,5.41,1.74,7.8.08l4.95-3.45c.57-.39,1.32-.39,1.89,0l4.95,3.45c1.17.82,2.51,1.22,3.85,1.22s2.76-.44,3.96-1.3c2.35-1.71,3.33-4.61,2.48-7.39l-1.75-5.78c-.2-.66.04-1.38.58-1.79l4.81-3.65c2.32-1.76,3.23-4.68,2.33-7.45-.9-2.77-3.36-4.59-6.26-4.65Zm.86,8.04l-4.81,3.65c-2.23,1.69-3.19,4.63-2.38,7.31l1.75,5.78c.31,1.01-.32,1.61-.61,1.81-.29.21-1.04.62-1.91.02l-4.95-3.45c-1.15-.8-2.5-1.2-3.85-1.2s-2.7.4-3.84,1.2l-4.95,3.45c-.87.61-1.63.19-1.91-.02s-.92-.8-.61-1.81l1.75-5.78c.81-2.68-.15-5.62-2.38-7.31l-4.81-3.65c-.84-.64-.68-1.49-.57-1.83.11-.34.48-1.12,1.54-1.14l6.03-.12c2.8-.06,5.3-1.87,6.22-4.52l1.98-5.7h0c.35-1,1.21-1.11,1.56-1.11s1.21.11,1.56,1.11l1.98,5.7c.92,2.65,3.42,4.46,6.22,4.52l6.04.12c1.06.02,1.43.8,1.54,1.14.11.34.27,1.19-.57,1.83Z"/>
  </g>
</svg>