<?xml version="1.0" encoding="UTF-8"?>
<svg id="Layer_2" data-name="Layer 2" xmlns="http://www.w3.org/2000/svg" viewBox="0 0 34.6 34.59">
  <defs>
    <style>
      .cls-1 {
        fill: #004b3d;
      }
    </style>
  </defs>
  <g id="Layer_1-2" data-name="Layer 1">
    <path class="cls-1" d="m29.84,2.89c-3.85-3.85-10.12-3.85-13.96,0L2.89,15.87c-3.85,3.85-3.85,10.11,0,13.96l1.87,1.87c1.92,1.93,4.45,2.89,6.98,2.89s5.06-.96,6.98-2.89l12.99-12.99c1.86-1.86,2.89-4.34,2.89-6.98s-1.03-5.12-2.89-6.98l-1.87-1.87Zm-14.71,25.23c-1.87,1.87-4.91,1.87-6.78,0l-1.87-1.87c-1.87-1.87-1.87-4.91,0-6.78l4.54-4.54,8.65,8.65-4.54,4.54Zm12.99-12.99l-4.85,4.85-8.65-8.65,4.85-4.85c.93-.93,2.16-1.4,3.39-1.4s2.45.47,3.39,1.4l1.87,1.87c.91.9,1.4,2.11,1.4,3.39s-.5,2.48-1.4,3.39Z"/>
  </g>
</svg>