<?xml version="1.0" encoding="UTF-8"?>
<svg id="Layer_2" data-name="Layer 2" xmlns="http://www.w3.org/2000/svg" viewBox="0 0 45.61 43.47">
  <defs>
    <style>
      .cls-1 {
        fill: #fff;
      }
    </style>
  </defs>
  <g id="Layer_1-2" data-name="Layer 1">
    <path class="cls-1" d="m40.57,13.85L12.33.82C9.13-.65,5.52-.11,2.9,2.23.29,4.58-.65,8.11.46,11.44l3.05,9.15c.25.73.25,1.54,0,2.28L.46,32.02c-1.11,3.34-.18,6.87,2.44,9.21,1.64,1.47,3.68,2.23,5.75,2.23,1.23,0,2.48-.27,3.67-.82l28.24-13.03c3.11-1.44,5.04-4.45,5.04-7.88s-1.93-6.44-5.04-7.88Zm-2.13,11.15l-28.24,13.03c-1.35.62-2.8.4-3.91-.59-1.1-.99-1.48-2.41-1.01-3.82l3.05-9.15c.02-.07.03-.14.05-.21h15.44v-5.08h-15.44c-.02-.07-.03-.14-.05-.2l-3.05-9.15h0c-.47-1.4-.09-2.83,1.01-3.82.69-.62,1.52-.93,2.37-.93.51,0,1.03.11,1.54.35l28.24,13.03c1.31.6,2.09,1.83,2.09,3.27s-.78,2.66-2.09,3.27Z"/>
  </g>
</svg>