<?xml version="1.0" encoding="UTF-8"?>
<svg id="Layer_2" data-name="Layer 2" xmlns="http://www.w3.org/2000/svg" viewBox="0 0 39.19 39.19">
  <defs>
    <style>
      .cls-1 {
        fill: #fff;
      }
    </style>
  </defs>
  <g id="Layer_1-2" data-name="Layer 1">
    <path class="cls-1" d="m37.79,12.37v-.49h-.19C34.59,4.9,27.66,0,19.59,0S4.59,4.9,1.59,11.88h-.19v.49c-.89,2.24-1.4,4.67-1.4,7.22s.51,4.99,1.4,7.22v.49h.19c3,6.98,9.94,11.88,18,11.88s15-4.9,18-11.88h.19v-.49c.89-2.24,1.4-4.67,1.4-7.22s-.51-4.99-1.4-7.22Zm-3.68,7.22c0,.9-.09,1.78-.25,2.64h-5.7c.05-.88.07-1.76.07-2.64s-.02-1.76-.07-2.64h5.7c.16.86.25,1.73.25,2.64Zm-14.51,14.49c-.72-.37-2.04-2.65-2.85-6.77h5.71c-.81,4.13-2.14,6.4-2.85,6.77Zm-3.47-11.85c-.05-.84-.08-1.71-.08-2.64s.03-1.8.08-2.64h6.94c.05.84.08,1.71.08,2.64s-.03,1.8-.08,2.64h-6.94Zm-11.04-2.64c0-.9.09-1.78.25-2.64h5.7c-.05.88-.07,1.76-.07,2.64s.02,1.76.07,2.64h-5.7c-.16-.86-.25-1.73-.25-2.64Zm14.51-14.49c.72.37,2.04,2.65,2.85,6.77h-5.71c.81-4.13,2.14-6.4,2.85-6.77Zm12.27,6.77h-4.26c-.31-1.84-.74-3.58-1.29-5.14,2.28,1.19,4.19,2.97,5.56,5.14ZM12.88,6.74c-.55,1.56-.98,3.3-1.29,5.14h-4.26c1.37-2.16,3.28-3.95,5.56-5.14Zm-5.56,20.57h4.26c.31,1.84.74,3.58,1.29,5.14-2.28-1.19-4.19-2.97-5.56-5.14Zm18.98,5.14c.55-1.56.98-3.3,1.29-5.14h4.26c-1.37,2.16-3.28,3.95-5.56,5.14Z"/>
  </g>
</svg>