<?xml version="1.0" encoding="UTF-8"?>
<svg id="Layer_2" data-name="Layer 2" xmlns="http://www.w3.org/2000/svg" viewBox="0 0 42.97 39.19">
  <defs>
    <style>
      .cls-1 {
        fill: #fff;
      }
    </style>
  </defs>
  <g id="Layer_1-2" data-name="Layer 1">
    <path class="cls-1" d="m34.75,3.79h-14.11l-1.38-1.38c-1.55-1.55-3.62-2.41-5.82-2.41h-5.22C3.69,0,0,3.69,0,8.22v22.74c0,4.54,3.69,8.22,8.22,8.22h26.53c4.53,0,8.22-3.69,8.22-8.22V12.01c0-4.54-3.69-8.22-8.22-8.22Zm3.14,27.17c0,1.73-1.41,3.14-3.14,3.14H8.22c-1.73,0-3.14-1.41-3.14-3.14V8.22c0-1.73,1.41-3.14,3.14-3.14h5.22c.84,0,1.63.33,2.22.92l2.87,2.87h16.21c1.73,0,3.14,1.41,3.14,3.14v18.95Z"/>
  </g>
</svg>