<?xml version="1.0" encoding="UTF-8"?>
<svg id="Layer_2" data-name="Layer 2" xmlns="http://www.w3.org/2000/svg" viewBox="0 0 35.74 39.12">
  <defs>
    <style>
      .cls-1 {
        fill: #004b3d;
      }
    </style>
  </defs>
  <g id="Layer_1-2" data-name="Layer 1">
    <path class="cls-1" d="m28.09,5.23h-5.15c-.83,0-1.65-.13-2.43-.39l-1.96-.65c-1.3-.43-2.66-.65-4.04-.65H5.08V0H0v39.12h5.08v-10.07h8.64c1.35,0,2.69.22,3.97.64l1.21.4c1.3.44,2.66.66,4.04.66h5.15c4.22,0,7.65-3.43,7.65-7.65v-10.22c0-4.22-3.43-7.65-7.65-7.65Zm2.57,17.87c0,1.42-1.15,2.57-2.57,2.57h-5.15c-.83,0-1.65-.13-2.43-.39l-1.21-.4c-1.8-.6-3.68-.9-5.58-.9H5.08v-15.36h9.43c.83,0,1.64.13,2.43.39l1.96.65c1.3.44,2.66.66,4.04.66h5.15c1.42,0,2.57,1.15,2.57,2.57v10.22Z"/>
  </g>
</svg>