<?xml version="1.0" encoding="UTF-8"?>
<svg id="Layer_2" data-name="Layer 2" xmlns="http://www.w3.org/2000/svg" viewBox="0 0 38.45 42.16">
  <defs>
    <style>
      .cls-1 {
        fill: #fff;
      }
    </style>
  </defs>
  <g id="Layer_1-2" data-name="Layer 1">
    <g>
      <path class="cls-1" d="m30.35,42.16c4.47,0,8.1-3.63,8.1-8.1V8.1c0-4.47-3.63-8.1-8.1-8.1H8.1C3.63,0,0,3.63,0,8.1v25.95c0,4.47,3.63,8.1,8.1,8.1h22.25Zm-25.27-8.1V8.1c0-1.67,1.36-3.02,3.02-3.02h22.25c1.67,0,3.02,1.36,3.02,3.02v25.95c0,1.67-1.36,3.02-3.02,3.02H8.1c-1.67,0-3.02-1.36-3.02-3.02Z"/>
      <rect class="cls-1" x="16.92" y="29.28" width="4.61" height="5.08"/>
    </g>
  </g>
</svg>