<?xml version="1.0" encoding="UTF-8"?>
<svg id="Layer_2" data-name="Layer 2" xmlns="http://www.w3.org/2000/svg" viewBox="0 0 47.47 36.1">
  <defs>
    <style>
      .cls-1 {
        fill: #004b3d;
      }
    </style>
  </defs>
  <g id="Layer_1-2" data-name="Layer 1">
    <g>
      <path class="cls-1" d="m30.83,18.7l-7.1,7.1-7.1-7.1c-1.59-1.59-4.36-1.59-5.95,0L0,29.39l1.8,1.8c1.28,1.28,2.75,2.34,4.36,3.15,1.34.67,2.76,1.15,4.22,1.44,1.07.21,2.18.32,3.29.32s2.21-.11,3.29-.32c1.47-.29,2.89-.78,4.22-1.45.9-.45,1.76-.99,2.56-1.6.81.61,1.66,1.15,2.56,1.6,1.34.67,2.75,1.15,4.22,1.45,1.07.21,2.18.32,3.29.32s2.21-.11,3.29-.32c1.47-.29,2.89-.78,4.22-1.45,1.61-.81,3.08-1.87,4.36-3.15l1.8-1.8-10.69-10.69c-1.59-1.59-4.36-1.59-5.94,0Zm-11.94,11.09c-.92.46-1.91.8-2.93,1.01-1.5.3-3.1.3-4.59,0-1.02-.2-2.01-.54-2.94-1.01-.36-.18-.71-.38-1.05-.6l6.28-6.28,6.28,6.28c-.34.22-.69.42-1.05.6Z"/>
      <path class="cls-1" d="m26.71,7.1c0,3.91,3.18,7.1,7.1,7.1s7.1-3.18,7.1-7.1-3.18-7.1-7.1-7.1-7.1,3.18-7.1,7.1Zm9.12,0c0,1.11-.91,2.02-2.02,2.02s-2.02-.91-2.02-2.02.91-2.02,2.02-2.02,2.02.91,2.02,2.02Z"/>
      <path class="cls-1" d="m13.67,14.2c3.91,0,7.1-3.18,7.1-7.1S17.58,0,13.67,0s-7.1,3.18-7.1,7.1,3.18,7.1,7.1,7.1Z"/>
    </g>
  </g>
</svg>