<?xml version="1.0" encoding="UTF-8"?>
<svg id="Layer_2" data-name="Layer 2" xmlns="http://www.w3.org/2000/svg" viewBox="0 0 31.02 43">
  <defs>
    <style>
      .cls-1 {
        fill: #004b3d;
      }
    </style>
  </defs>
  <g id="Layer_1-2" data-name="Layer 1">
    <path class="cls-1" d="m12.13,26.2H0v5.08h3.54c.1,1.76.8,3.35,1.9,4.59-1.19,1.34-1.92,3.09-1.92,5.01v2.12h5.08v-2.12c0-1.36,1.11-2.47,2.47-2.47h12.4c1.36,0,2.47,1.11,2.47,2.47v2.12h5.08v-2.12c0-1.92-.73-3.68-1.92-5.01,1.19-1.34,1.92-3.09,1.92-5.01v-14.92c0-4.16-3.39-7.55-7.55-7.55h-5.23c.42-2.3-1.03-4.56-3.33-5.09l-.24-.05.49-2.1-4.95-1.14-.49,2.1-.23-.05c-1.15-.27-2.33-.07-3.33.56-1,.62-1.69,1.6-1.96,2.75l-2.08,9.01c-.27,1.15-.07,2.33.56,3.33.62,1,1.6,1.69,2.75,1.96l.23.05-.43,1.86,4.95,1.14.43-1.86.23.05c.33.08.67.11,1,.11.82,0,1.62-.23,2.33-.67,1-.62,1.69-1.6,1.96-2.75l.95-4.13h6.39c1.36,0,2.47,1.11,2.47,2.47v14.92c0,1.36-1.11,2.47-2.47,2.47h-12.4c-1.22,0-2.23-.89-2.43-2.05h3.48v-5.08Zm-.79-10.4l-4.11-.95,1.77-7.7,4.11.95-1.77,7.7Z"/>
  </g>
</svg>