<?xml version="1.0" encoding="UTF-8"?>
<svg id="Layer_2" data-name="Layer 2" xmlns="http://www.w3.org/2000/svg" viewBox="0 0 27.33 36.1">
  <defs>
    <style>
      .cls-1 {
        fill: #004b3d;
      }
    </style>
  </defs>
  <g id="Layer_1-2" data-name="Layer 1">
    <g>
      <path class="cls-1" d="m6.16,34.34c1.34.67,2.76,1.15,4.22,1.44,1.07.21,2.18.32,3.29.32s2.21-.11,3.29-.32c1.47-.29,2.89-.78,4.22-1.45,1.61-.81,3.08-1.87,4.36-3.15l1.8-1.8-10.69-10.69c-1.59-1.59-4.36-1.59-5.95,0L0,29.39l1.8,1.8c1.28,1.28,2.75,2.34,4.36,3.15Z"/>
      <path class="cls-1" d="m13.66,14.2c3.91,0,7.1-3.18,7.1-7.1S17.58,0,13.66,0s-7.1,3.18-7.1,7.1,3.18,7.1,7.1,7.1Zm0-9.12c1.11,0,2.02.91,2.02,2.02s-.91,2.02-2.02,2.02-2.02-.91-2.02-2.02.91-2.02,2.02-2.02Z"/>
    </g>
  </g>
</svg>