<?xml version="1.0" encoding="UTF-8"?>
<svg id="Layer_2" data-name="Layer 2" xmlns="http://www.w3.org/2000/svg" viewBox="0 0 46.05 45.42">
  <defs>
    <style>
      .cls-1 {
        fill: #fff;
      }
    </style>
  </defs>
  <g id="Layer_1-2" data-name="Layer 1">
    <path class="cls-1" d="m6.7,45.42h32.66c3.69,0,6.69-3,6.69-6.69v-17.78c0-3.69-3-6.69-6.69-6.69h-.99c-.34-.84-.84-1.61-1.5-2.27L26.19,1.31c-1.74-1.74-4.58-1.74-6.32,0l-10.68,10.68c-.66.66-1.16,1.43-1.5,2.27h-.99c-3.69,0-6.7,3-6.7,6.69v17.78c0,3.69,3,6.69,6.7,6.69ZM23.03,5.33l8.93,8.93H14.1l8.93-8.93ZM5.08,20.95c0-.89.73-1.62,1.62-1.62h32.66c.89,0,1.61.72,1.61,1.62v17.78c0,.89-.72,1.62-1.61,1.62H6.7c-.89,0-1.62-.72-1.62-1.62v-17.78Z"/>
  </g>
</svg>