<?xml version="1.0" encoding="UTF-8"?>
<svg id="Layer_2" data-name="Layer 2" xmlns="http://www.w3.org/2000/svg" viewBox="0 0 27.48 48.83">
  <defs>
    <style>
      .cls-1 {
        fill: #004b3d;
      }
    </style>
  </defs>
  <g id="Layer_1-2" data-name="Layer 1">
    <path class="cls-1" d="m20.64,33.42l.02-2.09,5.3-5.3c.96-.96,1.51-2.28,1.51-3.64V5.15c0-2.84-2.31-5.15-5.15-5.15H5.15C2.31,0,0,2.31,0,5.15v17.24c0,1.36.55,2.68,1.51,3.64l5.32,5.35v2.05c0,2.57,1.9,4.69,4.37,5.07v4.49c0,3.22,2.62,5.85,5.85,5.85h5.24v-5.08h-5.24c-.42,0-.77-.34-.77-.77v-4.49c2.47-.38,4.37-2.5,4.37-5.07Zm1.75-28.28v10.61S5.14,8.07,5.14,8.07v-2.99s17.26.07,17.26.07ZM5.08,22.39l.03-8.76,17.26,7.69v1.11s-5.3,5.3-5.3,5.3c-.96.96-1.51,2.28-1.51,3.64v2.05l-.07.07-3.58-.07v-2.05c0-1.36-.55-2.68-1.51-3.64l-5.32-5.35Z"/>
  </g>
</svg>