<?xml version="1.0" encoding="UTF-8"?>
<svg id="Layer_2" data-name="Layer 2" xmlns="http://www.w3.org/2000/svg" viewBox="0 0 40.05 40.39">
  <defs>
    <style>
      .cls-1 {
        fill: #004b3d;
      }
    </style>
  </defs>
  <g id="Layer_1-2" data-name="Layer 1">
    <g>
      <path class="cls-1" d="m3.59,40.39l7.39-7.39c3.03,2.23,6.75,3.56,10.79,3.56,10.08,0,18.28-8.2,18.28-18.28S31.85,0,21.77,0,3.5,8.2,3.5,18.28c0,4.21,1.45,8.08,3.85,11.18l-7.34,7.34,3.59,3.59ZM21.77,5.08c7.28,0,13.2,5.92,13.2,13.2s-5.92,13.2-13.2,13.2-13.2-5.92-13.2-13.2,5.92-13.2,13.2-13.2Z"/>
      <polygon class="cls-1" points="24.77 11.83 19.69 11.83 19.69 16.04 15.49 16.04 15.49 21.12 19.69 21.12 19.69 25.32 24.77 25.32 24.77 21.12 28.97 21.12 28.97 16.04 24.77 16.04 24.77 11.83"/>
    </g>
  </g>
</svg>