<?xml version="1.0" encoding="UTF-8"?>
<svg id="Layer_2" data-name="Layer 2" xmlns="http://www.w3.org/2000/svg" viewBox="0 0 44.33 41.29">
  <defs>
    <style>
      .cls-1 {
        fill: #004b3d;
      }
    </style>
  </defs>
  <g id="Layer_1-2" data-name="Layer 1">
    <path class="cls-1" d="m0,28.85c0,6.86,5.58,12.44,12.44,12.44s12.44-5.58,12.44-12.44c0-1.18-.18-2.33-.49-3.41l7.48-.03v3.9c-2.33.88-3.99,3.13-3.99,5.77,0,3.4,2.77,6.17,6.17,6.17s6.17-2.77,6.17-6.17c0-.37-.04-.74-.1-1.09h4.21v-5.08h-7.38v-3.5c0-2.72-2.17-4.93-4.87-5.02v-3.62c0-3.07-2.5-5.57-5.57-5.57h-13.74l-1.59-5.33c-.53-1.78-1.89-3.21-3.63-3.83L1.87,0,.16,4.78l5.69,2.03c.23.08.4.27.47.5l2.85,9.55C3.89,18.31,0,23.13,0,28.85Zm35.15,6.23c0,.6-.49,1.09-1.09,1.09s-1.09-.49-1.09-1.09.49-1.09,1.09-1.09,1.09.49,1.09,1.09Zm-8.64-18.8c.27,0,.49.22.49.49v3.61h-5.49c-1.85-1.98-4.34-3.35-7.14-3.8l-.09-.31h12.22Zm-14.07,5.22c4.06,0,7.36,3.3,7.36,7.36s-3.3,7.36-7.36,7.36-7.36-3.3-7.36-7.36,3.3-7.36,7.36-7.36Z"/>
  </g>
</svg>