<?xml version="1.0" encoding="UTF-8"?>
<svg id="Layer_2" data-name="Layer 2" xmlns="http://www.w3.org/2000/svg" viewBox="0 0 45.61 43.05">
  <defs>
    <style>
      .cls-1 {
        fill: #fff;
      }
    </style>
  </defs>
  <g id="Layer_1-2" data-name="Layer 1">
    <g>
      <path class="cls-1" d="m3.8,42.42c.91.42,1.86.63,2.81.63,1.5,0,2.99-.52,4.2-1.54l4.81-4h21.37c4.75,0,8.62-3.87,8.62-8.62V8.62c0-4.75-3.87-8.62-8.62-8.62H8.62C3.87,0,0,3.87,0,8.62v27.83c0,2.59,1.45,4.87,3.8,5.97Zm1.28-33.8c0-1.95,1.59-3.54,3.54-3.54h28.37c1.95,0,3.54,1.59,3.54,3.54v20.27c0,1.95-1.59,3.54-3.54,3.54H13.78l-6.22,5.18c-.66.56-1.35.33-1.61.21-.26-.12-.87-.5-.87-1.37V8.62Z"/>
      <rect class="cls-1" x="12.67" y="12.16" width="20.27" height="5.08"/>
      <rect class="cls-1" x="12.67" y="20.27" width="12.16" height="5.08"/>
    </g>
  </g>
</svg>