<?xml version="1.0" encoding="UTF-8"?>
<svg id="Layer_2" data-name="Layer 2" xmlns="http://www.w3.org/2000/svg" viewBox="0 0 43.45 43.45">
  <defs>
    <style>
      .cls-1 {
        fill: #fff;
      }
    </style>
  </defs>
  <g id="Layer_1-2" data-name="Layer 1">
    <path class="cls-1" d="m8.3,43.45h26.86c4.58,0,8.3-3.72,8.3-8.3V15.97c0-2.88-1.49-5.46-3.84-6.96v-4.55c0-2.46-2-4.46-4.46-4.46H6.38C2.86,0,0,2.86,0,6.38c0,0,0,0,0,0h0v28.78c0,4.58,3.72,8.3,8.3,8.3Zm30.07-16.59h-8.6v-2.59h8.6v2.59Zm-11.14-7.67h-2.54v12.75h13.68v3.21c0,1.77-1.44,3.22-3.22,3.22H8.3c-1.78,0-3.22-1.44-3.22-3.22V12.62s0,0,0,0c.15.03.3.05.45.07.06,0,.12.02.18.03.22.02.43.03.65.03h28.78c.11,0,.21,0,.38.02h.03s1.05.33,1.05.33c1.07.54,1.77,1.64,1.77,2.86v3.22h-11.14ZM6.38,5.08h28.16v2.6H6.38c-.23,0-.44-.08-.63-.18-.39-.22-.67-.63-.67-1.11,0-.72.58-1.3,1.3-1.3Z"/>
  </g>
</svg>