<?xml version="1.0" encoding="UTF-8"?>
<svg id="Layer_2" data-name="Layer 2" xmlns="http://www.w3.org/2000/svg" viewBox="0 0 40.08 40.08">
  <defs>
    <style>
      .cls-1 {
        fill: #004b3d;
      }
    </style>
  </defs>
  <g id="Layer_1-2" data-name="Layer 1">
    <g>
      <rect class="cls-1" x="13.42" y="18.35" width="11.56" height="5.08" transform="translate(-9.15 19.69) rotate(-45)"/>
      <path class="cls-1" d="m3.59,40.08l6.89-6.89,1.87,1.87c1.14,1.14,2.65,1.76,4.25,1.76s3.12-.63,4.26-1.76l12.17-12.17c.22-.22.42-.47.61-.72l2.85,2.85,3.59-3.59-8.92-8.92,3.03-3.03,2.29,2.29,3.59-3.59L31.91,0l-3.59,3.59,2.29,2.29-3.03,3.03L18.66,0l-3.59,3.59,2.85,2.85c-.25.18-.49.38-.72.61l-12.17,12.17c-2.35,2.35-2.35,6.16,0,8.51l1.87,1.87-6.89,6.89,3.59,3.59Zm5.03-17.27l12.17-12.17c.18-.18.42-.27.66-.27s.48.09.66.27l7.33,7.33c.36.37.36.96,0,1.32l-12.17,12.17c-.37.37-.96.36-1.33,0l-7.32-7.32c-.37-.37-.37-.96,0-1.33Z"/>
    </g>
  </g>
</svg>