<?xml version="1.0" encoding="UTF-8"?>
<svg id="Layer_2" data-name="Layer 2" xmlns="http://www.w3.org/2000/svg" viewBox="0 0 39.08 39.08">
  <defs>
    <style>
      .cls-1 {
        fill: #fff;
      }
    </style>
  </defs>
  <g id="Layer_1-2" data-name="Layer 1">
    <g>
      <rect class="cls-1" x="15.47" y="15.29" width="11.56" height="5.08" transform="translate(-6.38 20.25) rotate(-45)"/>
      <path class="cls-1" d="m3.59,39.08l6.89-6.89,1.6,1.6c1.21,1.21,2.81,1.87,4.52,1.87s3.31-.67,4.52-1.87l16.08-16.08c2.49-2.49,2.49-6.55,0-9.04l-6.79-6.79c-2.49-2.49-6.55-2.49-9.04,0L5.29,17.95c-2.49,2.49-2.49,6.55,0,9.04l1.6,1.6-6.89,6.89,3.59,3.59Zm5.29-17.53L24.97,5.46c.26-.26.59-.38.93-.38s.67.13.93.38l6.79,6.79c.51.51.51,1.34,0,1.86l-16.08,16.08c-.5.5-1.36.49-1.85,0l-6.8-6.79c-.51-.51-.51-1.34,0-1.86Z"/>
    </g>
  </g>
</svg>