<?xml version="1.0" encoding="UTF-8"?>
<svg id="Layer_2" data-name="Layer 2" xmlns="http://www.w3.org/2000/svg" viewBox="0 0 54.37 36.47">
  <defs>
    <style>
      .cls-1 {
        fill: #004b3d;
      }
    </style>
  </defs>
  <g id="Layer_1-2" data-name="Layer 1">
    <path class="cls-1" d="m46.83,0H7.54C3.38,0,0,3.38,0,7.54v21.39c0,4.16,3.38,7.54,7.54,7.54h39.3c4.16,0,7.54-3.38,7.54-7.54V7.54c0-4.16-3.38-7.54-7.54-7.54Zm-7.66,5.08l-11.99,11.99L15.2,5.08h23.98Zm10.12,23.85c0,1.36-1.1,2.46-2.46,2.46H7.54c-1.36,0-2.46-1.1-2.46-2.46V7.54c0-1.36,1.1-2.46,2.46-2.46h1.55c.38,1.07.98,2.06,1.81,2.88l12.85,12.85c.92.92,2.14,1.43,3.44,1.43s2.52-.51,3.44-1.42l12.85-12.85c.83-.83,1.43-1.81,1.81-2.88h1.55c1.36,0,2.46,1.1,2.46,2.46v21.39Z"/>
  </g>
</svg>