<?xml version="1.0" encoding="UTF-8"?>
<svg id="Layer_2" data-name="Layer 2" xmlns="http://www.w3.org/2000/svg" viewBox="0 0 56.2 43.94">
  <defs>
    <style>
      .cls-1 {
        fill: #fff;
      }
    </style>
  </defs>
  <g id="Layer_1-2" data-name="Layer 1">
    <g>
      <polygon class="cls-1" points="19.39 15.23 14.31 15.23 14.31 19.43 10.1 19.43 10.1 24.51 14.31 24.51 14.31 28.72 19.39 28.72 19.39 24.51 23.59 24.51 23.59 19.43 19.39 19.43 19.39 15.23"/>
      <path class="cls-1" d="m54.8,15.05c1.48-1.7,1.82-4.04.88-6.09-.94-2.05-2.92-3.33-5.18-3.33h-16.81c-.03-3.11-2.57-5.63-5.69-5.63H5.69C2.55,0,0,2.55,0,5.69v32.56c0,3.14,2.55,5.69,5.69,5.69h22.31c3.12,0,5.65-2.52,5.69-5.63h16.81c2.26,0,4.24-1.28,5.18-3.33.94-2.05.6-4.39-.88-6.09l-5.66-6.52c-.2-.23-.2-.57,0-.8l5.66-6.52Zm-26.8,23.81H5.69c-.34,0-.61-.27-.61-.61V5.69c0-.34.28-.61.61-.61h22.31c.34,0,.61.27.61.61v32.56c0,.34-.27.61-.61.61Zm17.3-13.16l5.66,6.52c.17.2.2.42.1.66-.11.24-.3.36-.56.36h-16.81V10.71h16.81c.26,0,.45.12.56.36.11.24.08.46-.1.66l-5.66,6.52c-1.85,2.13-1.85,5.34,0,7.46Z"/>
    </g>
  </g>
</svg>