<?xml version="1.0" encoding="UTF-8"?>
<svg id="Layer_2" data-name="Layer 2" xmlns="http://www.w3.org/2000/svg" viewBox="0 0 35.67 43.29">
  <defs>
    <style>
      .cls-1 {
        fill: #fff;
      }
    </style>
  </defs>
  <g id="Layer_1-2" data-name="Layer 1">
    <g>
      <path class="cls-1" d="m17.83,0C8,0,0,8,0,17.83c0,4.04,1.39,8,3.91,11.15h0c.51.69,5.54,7.39,9.44,12.17,1.11,1.36,2.74,2.14,4.48,2.14h0c1.74,0,3.37-.78,4.48-2.14,3.96-4.84,9.06-11.66,9.47-12.2,2.5-3.14,3.88-7.09,3.88-11.11C35.67,8,27.67,0,17.83,0Zm9.96,25.8l-.05.07c-.05.07-5.32,7.13-9.36,12.06-.18.22-.4.27-.55.27s-.37-.05-.55-.27c-4.02-4.92-9.29-11.98-9.41-12.13-1.83-2.28-2.8-5.04-2.8-7.97,0-7.03,5.72-12.75,12.75-12.75s12.75,5.72,12.75,12.75c0,2.93-.97,5.69-2.8,7.97Z"/>
      <polygon class="cls-1" points="20.37 13.09 15.29 13.09 15.29 16.89 11.49 16.89 11.49 21.97 15.29 21.97 15.29 25.77 20.37 25.77 20.37 21.97 24.18 21.97 24.18 16.89 20.37 16.89 20.37 13.09"/>
    </g>
  </g>
</svg>